<?xml version="1.0" standalone="no"?>
<!DOCTYPE svg PUBLIC "-//W3C//DTD SVG 20010904//EN"
 "http://www.w3.org/TR/2001/REC-SVG-20010904/DTD/svg10.dtd">
<svg version="1.0" xmlns="http://www.w3.org/2000/svg"
 width="1024.000000pt" height="1024.000000pt" viewBox="0 0 1024.000000 1024.000000"
 preserveAspectRatio="xMidYMid meet">

<g transform="translate(0.000000,1024.000000) scale(0.100000,-0.100000)"
fill="#000000" stroke="none">
<path d="M7575 5840 l270 -270 442 0 443 0 0 -443 0 -442 270 -270 270 -270 0
983 0 982 -982 0 -983 0 270 -270z"/>
<path d="M1649 5953 c-6 -16 -159 -397 -341 -848 -182 -451 -333 -826 -335
-832 -4 -10 45 -13 223 -13 l229 0 34 93 c18 50 47 127 63 170 l30 77 383 0
382 0 70 -167 70 -168 233 -3 c210 -2 232 -1 226 14 -3 9 -175 396 -382 860
l-377 844 -249 0 -248 0 -11 -27z m406 -718 c70 -170 129 -316 132 -322 4 -10
-51 -13 -257 -13 -205 0 -261 3 -258 13 50 145 245 644 249 639 4 -4 64 -146
134 -317z"/>
<path d="M3120 5120 l0 -860 215 0 215 0 2 530 3 530 225 -265 c215 -252 227
-264 260 -264 33 0 45 11 260 264 124 145 228 264 233 264 4 1 7 -237 7 -529
l0 -530 210 0 210 0 0 860 0 860 -184 0 -185 0 -272 -315 c-150 -174 -276
-314 -281 -313 -5 2 -130 143 -277 313 l-267 310 -187 3 -187 2 0 -860z"/>
<path d="M5290 5119 l0 -861 458 5 c496 5 538 9 706 65 228 77 398 233 483
442 41 102 56 194 57 340 1 165 -18 257 -78 385 -85 178 -193 288 -371 376
-193 95 -300 109 -850 109 l-405 0 0 -861z m884 521 c247 -63 376 -239 377
-516 1 -169 -48 -302 -145 -400 -55 -54 -102 -83 -196 -117 -47 -17 -85 -21
-272 -25 l-218 -4 0 541 0 541 188 0 c155 0 203 -4 266 -20z"/>
<path d="M7568 5183 l-278 -278 0 -388 0 -387 393 0 392 1 273 279 274 280
-386 0 -386 0 -2 385 -3 385 -277 -277z"/>
</g>
</svg>
